<svg version="1.1" xmlns="http://www.w3.org/2000/svg" xmlns:xlink="http://www.w3.org/1999/xlink" width="800px" height="800px" viewBox="0,0,256,256"><g fill="none" fill-rule="nonzero" stroke="none" stroke-width="1" stroke-linecap="butt" stroke-linejoin="miter" stroke-miterlimit="10" stroke-dasharray="" stroke-dashoffset="0" font-family="none" font-weight="none" font-size="none" text-anchor="none" style="mix-blend-mode: normal"><g transform="scale(0.5,0.5)"><path d="M73.143,0c-40.331,0 -73.143,32.812 -73.143,73.143c0,40.331 32.812,73.143 73.143,73.143c40.331,0 73.143,-32.812 73.143,-73.143c0,-40.331 -32.812,-73.143 -73.143,-73.143z" fill="#75be76"></path><path d="M438.857,146.286c40.331,0 73.143,-32.812 73.143,-73.143c0,-40.331 -32.812,-73.143 -73.143,-73.143c-40.331,0 -73.143,32.812 -73.143,73.143c0,40.331 32.812,73.143 73.143,73.143z" fill="#90eb78"></path><path d="M256,0c-40.331,0 -73.143,32.812 -73.143,73.143c0,40.331 32.812,73.143 73.143,73.143c40.331,0 73.143,-32.812 73.143,-73.143c0,-40.331 -32.812,-73.143 -73.143,-73.143z" fill="#75be76"></path><g fill="#90eb78"><path d="M438.857,365.714c-40.331,0 -73.143,32.812 -73.143,73.143c0,40.331 32.812,73.143 73.143,73.143c40.331,0 73.143,-32.812 73.143,-73.143c0,-40.331 -32.812,-73.143 -73.143,-73.143z"></path><path d="M438.857,182.857c-40.331,0 -73.143,32.812 -73.143,73.143c0,40.331 32.812,73.143 73.143,73.143c40.331,0 73.143,-32.812 73.143,-73.143c0,-40.331 -32.812,-73.143 -73.143,-73.143z"></path></g><path d="M256,182.857c-40.331,0 -73.143,32.812 -73.143,73.143c0,40.331 32.812,73.143 73.143,73.143c40.331,0 73.143,-32.812 73.143,-73.143c0,-40.331 -32.812,-73.143 -73.143,-73.143z" fill="#75be76"></path><g fill="#90eb78"><path d="M256,146.286c40.331,0 73.143,-32.812 73.143,-73.143c0,-40.331 -32.812,-73.143 -73.143,-73.143"></path><path d="M256,329.143c40.331,0 73.143,-32.812 73.143,-73.143c0,-40.331 -32.812,-73.143 -73.143,-73.143"></path></g></g></g></svg>